<svg xmlns="http://www.w3.org/2000/svg" width="113" height="33" viewBox="0 0 113 33" fill="none"><g clip-path="url(#clip0_7037_17792)"><path d="M1.02741 21.6063C-0.341169 20.2377 -0.341169 18.0163 1.02741 16.6477L1.67516 15.9999L1.02741 15.3522C-0.341169 13.9836 -0.341169 11.7622 1.02741 10.3936C2.396 9.02504 4.61741 9.02504 5.98599 10.3936L6.63373 11.0414L11.5923 15.9999L6.63373 20.9585L5.98599 21.6063C4.61741 22.9748 2.396 22.9748 1.02741 21.6063Z" fill="#FF7700"></path><path d="M23.9721 21.6063C25.3407 20.2377 25.3407 18.0163 23.9721 16.6477L23.3244 15.9999L23.9721 15.3522C25.3407 13.9836 25.3407 11.7622 23.9721 10.3936C22.6035 9.02504 20.3821 9.02504 19.0135 10.3936L18.3658 11.0414L13.4072 15.9999L18.3658 20.9585L19.0135 21.6063C20.3821 22.9748 22.6035 22.9748 23.9721 21.6063Z" fill="#FF7700"></path><path d="M6.89363 27.4726C8.26221 28.8412 10.4836 28.8412 11.8522 27.4726L12.4999 26.8249L13.1477 27.4726C14.5163 28.8412 16.7377 28.8412 18.1063 27.4726C19.4748 26.104 19.4748 23.8826 18.1063 22.514L17.4585 21.8663L12.4999 16.9077L7.54137 21.8663L6.89363 22.514C5.52504 23.8826 5.52504 26.104 6.89363 27.4726Z" fill="#FF7700"></path><path d="M6.89363 4.52741C8.26221 3.15883 10.4836 3.15883 11.8522 4.52741L12.4999 5.17516L13.1477 4.52741C14.5163 3.15883 16.7377 3.15883 18.1063 4.52741C19.4748 5.896 19.4748 8.11741 18.1063 9.48599L17.4585 10.1337L12.4999 15.0923L7.54137 10.1337L6.89363 9.48599C5.52504 8.11741 5.52504 5.896 6.89363 4.52741Z" fill="#FF7700"></path></g><path d="M51.088 26H47.924L46.16 21.156H38.404L36.64 26H33.56L40.532 7.52H44.116L51.088 26ZM39.244 18.72H45.32L42.296 10.096L39.244 18.72ZM53.9451 26V12H56.6051L56.7451 14.352C57.2304 13.456 57.8744 12.7933 58.6771 12.364C59.4984 11.9347 60.3664 11.72 61.2811 11.72C62.2891 11.72 63.2131 11.9533 64.0531 12.42C64.9118 12.868 65.5558 13.5493 65.9851 14.464C66.2838 13.848 66.6944 13.3347 67.2171 12.924C67.7398 12.5133 68.3184 12.2147 68.9531 12.028C69.5878 11.8227 70.2131 11.72 70.8291 11.72C71.7251 11.72 72.5651 11.9067 73.3491 12.28C74.1331 12.6533 74.7678 13.2227 75.2531 13.988C75.7384 14.7533 75.9811 15.7333 75.9811 16.928V26H72.9851V17.404C72.9851 16.2653 72.7144 15.444 72.1731 14.94C71.6318 14.436 70.9411 14.184 70.1011 14.184C69.4478 14.184 68.8411 14.3427 68.2811 14.66C67.7398 14.9773 67.3011 15.4533 66.9651 16.088C66.6291 16.704 66.4611 17.4693 66.4611 18.384V26H63.4651V17.404C63.4651 16.2653 63.1944 15.444 62.6531 14.94C62.1118 14.436 61.4211 14.184 60.5811 14.184C60.0211 14.184 59.4611 14.3333 58.9011 14.632C58.3411 14.9307 57.8744 15.3973 57.5011 16.032C57.1278 16.6667 56.9411 17.5067 56.9411 18.552V26H53.9451ZM82.0352 9.648C81.3819 9.648 80.8779 9.48933 80.5232 9.172C80.1872 8.836 80.0192 8.36933 80.0192 7.772C80.0192 7.17467 80.1872 6.71733 80.5232 6.4C80.8779 6.08267 81.3819 5.924 82.0352 5.924C82.6699 5.924 83.1552 6.08267 83.4912 6.4C83.8459 6.71733 84.0232 7.17467 84.0232 7.772C84.0232 8.36933 83.8459 8.836 83.4912 9.172C83.1552 9.48933 82.6699 9.648 82.0352 9.648ZM83.5192 12V26H80.5232V12H83.5192ZM92.2948 7.884V21.8C92.2948 22.4907 92.4721 22.9947 92.8268 23.312C93.2001 23.6293 93.6948 23.788 94.3108 23.788C94.8148 23.788 95.2535 23.7133 95.6268 23.564C96.0001 23.396 96.3455 23.172 96.6628 22.892L97.3348 25.076C96.9055 25.4493 96.3735 25.748 95.7388 25.972C95.1228 26.1773 94.4321 26.28 93.6668 26.28C92.8641 26.28 92.1268 26.1493 91.4548 25.888C90.7828 25.6267 90.2601 25.2067 89.8868 24.628C89.5135 24.0307 89.3175 23.256 89.2988 22.304V8.724L92.2948 7.884ZM97.1108 12V14.352H86.6108V12H97.1108ZM112.366 12L106.234 27.652C105.823 28.7347 105.375 29.5933 104.89 30.228C104.423 30.8627 103.882 31.32 103.266 31.6C102.65 31.88 101.931 32.02 101.11 32.02C100.438 32.02 99.8127 31.9267 99.234 31.74C98.674 31.572 98.1793 31.3387 97.75 31.04L98.478 28.716C98.8327 29.0147 99.206 29.2387 99.598 29.388C100.009 29.5373 100.447 29.612 100.914 29.612C101.418 29.612 101.866 29.472 102.258 29.192C102.669 28.9307 103.033 28.3987 103.35 27.596L103.966 26.084L102.482 22.612L98.114 12H101.474L104.582 20.792L105.394 23.424L106.318 20.54L109.258 12H112.366Z" fill="#101840"></path><defs><clipPath id="clip0_7037_17792"><rect width="25" height="25" fill="white" transform="translate(0 3.5)"></rect></clipPath></defs></svg>